<?xml version="1.0" encoding="utf-8"?>
<!-- Generator: Adobe Illustrator 26.1.0, SVG Export Plug-In . SVG Version: 6.00 Build 0)  -->
<svg version="1.1" id="Camada_1" xmlns="http://www.w3.org/2000/svg" xmlns:xlink="http://www.w3.org/1999/xlink" x="0px" y="0px"
	 viewBox="0 0 100 100" style="enable-background:new 0 0 100 100;" xml:space="preserve">
<style type="text/css">
	.st0{fill:#FFFFFF;}
</style>
<g>
	<path class="st0" d="M0,54.3c0-2.86,0-5.73,0-8.59c0.23-1.57,0.43-3.15,0.71-4.72C4.03,22.21,18.38,6.59,36.8,1.64
		C39.73,0.86,42.71,0.4,45.7,0c2.86,0,5.73,0,8.59,0c1.95,0.32,3.94,0.45,5.87,0.92c19.55,4.7,32.28,16.66,38.18,35.88
		c0.91,2.96,1.29,6.03,1.66,9.1c0,2.73,0,5.47,0,8.2c-0.24,1.7-0.38,3.43-0.75,5.11c-4.4,19.95-16.37,32.99-35.87,39.09
		c-3.02,0.94-6.15,1.34-9.28,1.71c-2.73,0-5.47,0-8.2,0c-1.64-0.24-3.3-0.37-4.91-0.72C20.92,94.96,7.85,82.95,1.71,63.39
		C0.78,60.43,0.4,57.36,0,54.3z M80.82,48.93c0.05-1.19-0.05-2.65-0.26-4.1C78.09,28.39,62.8,17.17,46.41,19.76
		c-20.18,3.19-31.27,25.39-21.67,43.4c0.37,0.69,0.43,1.29,0.23,2.03c-1.21,4.32-2.38,8.65-3.57,12.98
		c-0.33,1.21-0.28,1.28,0.92,0.96c4.5-1.18,9-2.35,13.49-3.55c0.67-0.18,1.24-0.11,1.86,0.2c5.76,2.88,11.85,3.86,18.2,2.81
		C70.87,76.12,80.99,63.05,80.82,48.93z"/>
	<path class="st0" d="M51.4,74.15c-4.92,0.01-9.14-1.16-13.03-3.46c-0.68-0.4-1.29-0.44-2.02-0.23c-2.41,0.67-4.84,1.28-7.26,1.91
		c-1.02,0.26-1.12,0.17-0.86-0.82c0.65-2.45,1.31-4.9,2.01-7.34c0.17-0.58,0.1-1.05-0.22-1.56c-2.99-4.68-4.37-9.83-3.85-15.34
		c0.9-9.53,5.7-16.59,14.34-20.72c15.07-7.21,32.78,2.38,35.29,18.97c2.06,13.6-7.65,26.52-21.29,28.37
		C53.34,74.09,52.17,74.05,51.4,74.15z M58.87,63.4c0.29,0,0.59,0.01,0.88,0c3.34-0.18,5.94-2.53,6.36-5.75
		c0.09-0.67,0.09-1.34-0.63-1.69c-1.96-0.95-3.93-1.89-5.9-2.82c-0.68-0.32-1.24-0.14-1.7,0.48c-0.67,0.88-1.39,1.72-2.09,2.58
		c-0.46,0.57-1.01,0.76-1.72,0.47c-4.47-1.76-7.87-4.75-10.31-8.86c-0.34-0.57-0.31-1.09,0.11-1.62c0.58-0.74,1.14-1.5,1.7-2.26
		c0.4-0.54,0.46-1.12,0.19-1.75c-0.77-1.83-1.52-3.66-2.29-5.49c-0.18-0.42-0.4-0.82-0.86-1.02c-1.32-0.57-3.14-0.2-4.16,0.85
		c-1.13,1.17-1.93,2.51-2.27,4.13c-0.49,2.38-0.04,4.62,1.11,6.69c3.13,5.62,7.29,10.3,13.02,13.38
		C52.96,62.15,55.77,63.29,58.87,63.4z"/>
</g>
</svg>
