<?xml version="1.0" encoding="utf-8"?>
<!-- Generator: Adobe Illustrator 26.1.0, SVG Export Plug-In . SVG Version: 6.00 Build 0)  -->
<svg version="1.1" id="Camada_1" xmlns="http://www.w3.org/2000/svg" xmlns:xlink="http://www.w3.org/1999/xlink" x="0px" y="0px"
	 viewBox="0 0 100 99.96" style="enable-background:new 0 0 100 99.96;" xml:space="preserve">
<style type="text/css">
	.st0{fill:#FFFFFF;}
</style>
<g>
	<path class="st0" d="M50.01,0C77.47-0.18,100.01,22.45,100,49.97c-0.01,27.48-22.51,50-50.01,49.99C22.44,99.95-0.06,77.37,0,49.84
		C0.06,22.45,22.51-0.16,50.01,0z M22.49,49.96c0,3.07,0,6.13,0,9.2c0,1.4-0.08,2.81,0.18,4.2c1.59,8.5,8.43,14.19,17.13,14.23
		c6.8,0.03,13.59,0.02,20.39-0.01c1.14,0,2.29-0.1,3.41-0.32c8.36-1.61,13.98-8.45,14.02-17.08c0.03-6.8,0.02-13.59-0.01-20.39
		c-0.01-1.17-0.12-2.37-0.34-3.52c-1.61-8.23-8.34-13.78-16.72-13.81c-7.02-0.02-14.04-0.01-21.05,0c-1,0-1.99,0.02-2.98,0.18
		c-7.82,1.28-14.26,8.43-14.05,16.9C22.56,43.02,22.49,46.49,22.49,49.96z"/>
	<path class="st0" d="M49.22,71.69c-3.17-0.11-7.09,0.16-11-0.15c-5.08-0.4-9.62-5.03-9.79-10.11c-0.25-7.64-0.25-15.29,0-22.93
		c0.17-5.22,4.89-9.9,10.11-10.13c7.09-0.31,14.18-0.11,21.27-0.12c4.98-0.01,8.74,2.1,10.92,6.72c0.78,1.64,0.98,3.41,0.99,5.18
		c0.03,6.54,0.04,13.08,0,19.61c-0.03,6.02-3.48,10.49-8.93,11.61c-1.04,0.21-2.12,0.28-3.19,0.29
		C56.39,71.72,53.17,71.69,49.22,71.69z M63.98,49.98c0.01-7.85-6.1-13.99-13.96-14c-7.87-0.01-13.99,6.1-14,13.95
		c-0.01,7.86,6.11,13.99,13.96,14C57.83,63.95,63.97,57.83,63.98,49.98z M67.07,34.96c-0.01-1.31-0.93-2.23-2.21-2.22
		c-1.27,0.01-2.2,0.97-2.18,2.26c0.02,1.25,1.01,2.25,2.23,2.25C66.16,37.24,67.08,36.27,67.07,34.96z"/>
	<path class="st0" d="M58.71,49.89c0.01,4.87-3.84,8.77-8.66,8.78c-4.84,0.01-8.76-3.87-8.76-8.69c0-4.83,3.9-8.73,8.73-8.73
		C54.82,41.26,58.7,45.12,58.71,49.89z"/>
</g>
</svg>
