<?xml version="1.0" encoding="utf-8"?>
<!-- Generator: Adobe Illustrator 26.1.0, SVG Export Plug-In . SVG Version: 6.00 Build 0)  -->
<svg version="1.1" id="Camada_1" xmlns="http://www.w3.org/2000/svg" xmlns:xlink="http://www.w3.org/1999/xlink" x="0px" y="0px"
	 viewBox="0 0 100 100" style="enable-background:new 0 0 100 100;" xml:space="preserve">
<style type="text/css">
	.st0{fill:#FFFFFF;}
</style>
<g>
	<path class="st0" d="M100,45.9c0,2.73,0,5.47,0,8.2c-0.24,1.7-0.38,3.43-0.75,5.11c-4.4,19.95-16.37,32.99-35.87,39.09
		c-3.02,0.94-6.15,1.34-9.28,1.71c-2.73,0-5.47,0-8.2,0c-1.64-0.24-3.3-0.37-4.91-0.72C20.92,94.96,7.85,82.95,1.71,63.39
		C0.78,60.43,0.4,57.36,0,54.3c0-2.86,0-5.73,0-8.59c0.23-1.57,0.43-3.15,0.71-4.72C4.02,22.22,18.38,6.59,36.8,1.64
		C39.73,0.86,42.71,0.4,45.7,0c2.86,0,5.73,0,8.59,0c1.95,0.32,3.94,0.45,5.87,0.92c19.55,4.7,32.28,16.66,38.17,35.88
		C99.25,39.76,99.63,42.83,100,45.9z M42.39,57.23c-0.01,0-0.02,0-0.03,0c0,5.66,0,11.33,0,16.99c0,1.2,0.1,1.29,1.27,1.29
		c3.03,0,6.05,0,9.08,0c1.52,0,1.52,0,1.52-1.5c0-6.35,0.01-12.69,0-19.04c0-1.86,0.5-3.53,1.69-4.97c3.06-3.72,8.88-3.04,10.6,1.24
		c0.48,1.19,0.73,2.43,0.73,3.71c0.01,6.44,0.03,12.89,0,19.33c0,0.91,0.25,1.27,1.22,1.25c3.12-0.05,6.25-0.02,9.37-0.02
		c1.37,0,1.38-0.01,1.38-1.35c0-6.57-0.01-13.15,0.01-19.72c0-1.54-0.13-3.05-0.4-4.56C77.31,41.26,71,37.33,63.01,38.39
		c-3.38,0.45-5.99,2.21-7.96,4.98c-0.15,0.21-0.26,0.63-0.63,0.48c-0.27-0.11-0.17-0.46-0.17-0.71c-0.01-0.94-0.05-1.89,0.01-2.83
		c0.06-0.96-0.35-1.24-1.26-1.23c-3.09,0.04-6.18,0.01-9.28,0.02c-1.25,0-1.33,0.09-1.33,1.33C42.4,46.03,42.39,51.63,42.39,57.23z
		 M23.45,57.23c0,5.7,0.01,11.39-0.01,17.09c0,0.86,0.26,1.22,1.18,1.21c3.19-0.04,6.38-0.04,9.57,0c0.85,0.01,1.14-0.29,1.14-1.14
		c-0.02-11.39-0.02-22.78,0-34.18c0-0.86-0.34-1.13-1.16-1.12c-3.09,0.03-6.18,0.01-9.28,0.01c-1.38,0-1.43,0.05-1.43,1.43
		C23.45,46.09,23.45,51.66,23.45,57.23z M29.37,33.78c5.03,0,8.1-4.18,6.28-8.59c-1.07-2.6-3.23-3.68-5.88-3.77
		c-3.14-0.12-5.98,1.35-6.83,4.52C21.78,30.18,24.76,33.78,29.37,33.78z"/>
</g>
</svg>
