<?xml version="1.0" encoding="utf-8"?>
<!-- Generator: Adobe Illustrator 26.1.0, SVG Export Plug-In . SVG Version: 6.00 Build 0)  -->
<svg version="1.1" id="Camada_1" xmlns="http://www.w3.org/2000/svg" xmlns:xlink="http://www.w3.org/1999/xlink" x="0px" y="0px"
	 viewBox="0 0 864.01 129.01" style="enable-background:new 0 0 864.01 129.01;" xml:space="preserve">
<style type="text/css">
	.st0{fill:#FFFFFF;}
</style>
<g>
	<path class="st0" d="M247.34,0.09c9.12,0,18.24-0.07,27.36,0.02c16.27,0.16,31.21,13.67,33.06,29.78c0.6,5.24,0.3,5.6-5.19,5.8
		c-4.81,0.17-9.63,0.28-14.44,0.47c-2.5,0.1-3.69-0.86-4.19-3.44c-1.07-5.5-5.12-8.82-10.75-8.84c-17.33-0.08-34.66-0.09-51.99,0
		c-5.92,0.03-10.47,4.35-11.02,10.03c-0.55,5.76,2.97,10.77,8.57,12.3c1.92,0.53,3.85,0.56,5.81,0.56c14.46,0,28.93-0.05,43.39,0.02
		c22.22,0.1,39.95,18.07,39.95,40.38c-0.01,22.35-17.68,40.19-39.99,40.28c-13.81,0.06-27.62,0.07-41.44,0
		c-20.78-0.11-38.08-16.39-39.71-37.06c-0.25-3.12,0.88-3.88,3.66-3.83c5.34,0.1,10.69,0.12,16.03-0.01
		c2.56-0.06,3.64,0.99,4.26,3.42c2.47,9.72,7.81,13.83,17.91,13.87c13.16,0.05,26.32,0.17,39.48-0.09
		c10.95-0.21,18.32-10.1,15.82-20.68c-1.73-7.31-8.25-12.51-16.31-12.58c-14.85-0.13-29.71,0.02-44.56-0.08
		c-16.39-0.11-28.79-8.49-34.28-22.99c-8.72-23.05,8.05-47.27,32.77-47.33C230.14,0.06,238.74,0.08,247.34,0.09z"/>
	<path class="st0" d="M37.27,0.08c9.51,0,19.02-0.08,28.53,0.01c33.84,0.35,61.63,28.64,62.4,62.27
		c0.73,31.62-23.26,60.39-55.75,64.78c-1.93,0.26-3.9,0.29-5.85,0.29c-20.58,0.03-41.16-0.04-61.74,0.13
		c-3.77,0.03-4.87-1.14-4.86-4.86C0.12,83.43,0.12,44.16,0,4.88C-0.01,1.18,1.03-0.08,4.83,0C15.64,0.23,26.45,0.08,37.27,0.08z
		 M23.3,63.8c0,12.19,0.08,24.38-0.06,36.57c-0.03,3.02,0.89,4.08,4,4.05c12.12-0.14,24.24,0.03,36.35-0.12
		c3.23-0.04,6.51-0.51,9.65-1.25c20.63-4.9,33.33-23.57,30.81-45.09c-2.22-19-19.36-33.93-39.5-34.21
		c-12.25-0.17-24.5,0.07-36.75-0.12c-3.68-0.06-4.64,1.28-4.59,4.77C23.41,40.2,23.3,52,23.3,63.8z"/>
	<path class="st0" d="M472.89,48.05c0,2.38,0,3.77,0,5.16c0,23.08-0.08,46.16,0.08,69.24c0.03,3.86-0.99,5.34-5.03,5.08
		c-5.06-0.33-10.16-0.16-15.24-0.05c-2.51,0.05-3.62-0.97-3.56-3.41c0.03-1.04-0.02-2.07-0.02-3.11c0-37.99,0-75.99,0-113.98
		c0-0.78-0.03-1.56,0.02-2.33c0.07-1.13-0.27-2.61,0.97-3.14c1.22-0.52,2.11,0.71,3.01,1.4c21.39,16.34,42.78,32.69,64.16,49.05
		c11.05,8.45,22.1,16.92,33.16,25.36c0.8,0.61,1.58,1.79,2.63,1.36c1.37-0.55,0.79-2.05,0.79-3.13c0.03-23.21,0.02-46.42,0.03-69.63
		c0-5.82,0.02-5.83,5.81-5.82c4.43,0,8.87,0.19,13.29-0.03c3.51-0.18,4.79,0.97,4.73,4.61c-0.19,12.96-0.07,25.93-0.07,38.9
		c0,26.32,0.01,52.65-0.03,78.97c0,1.34,0.74,3.21-0.75,3.91c-1.44,0.67-2.52-0.99-3.6-1.82c-32.04-24.47-64.06-48.96-96.09-73.45
		C476.06,50.31,474.9,49.51,472.89,48.05z"/>
	<path class="st0" d="M619.1,48.04c0,2.44,0,3.84,0,5.24c0,23.08-0.09,46.16,0.08,69.24c0.03,3.97-1.16,5.26-5.1,5.01
		c-4.93-0.3-9.9-0.2-14.85-0.03c-2.93,0.1-4.05-1.12-3.9-3.88c0.06-1.03,0-2.07,0-3.11c0-37.99-0.01-75.99,0.03-113.98
		c0-1.73-0.84-4.15,1.05-4.98c1.58-0.7,2.89,1.37,4.19,2.37c31.42,24,62.82,48.02,94.22,72.04c0.1,0.08,0.2,0.18,0.31,0.24
		c1.46,0.77,2.6,3.05,4.17,2.36c1.64-0.73,0.77-3.03,0.77-4.63c0.05-22.82,0.02-45.64,0.04-68.47c0-5.36,0.04-5.37,5.48-5.37
		c4.69,0,9.39,0.17,14.07-0.02c3.24-0.13,4.28,1.09,4.26,4.28c-0.11,17.38-0.05,34.75-0.05,52.13c0,21.65,0.02,43.31-0.04,64.96
		c0,1.7,1.01,4.17-0.82,4.97c-1.7,0.74-3.11-1.47-4.5-2.53c-31.74-24.22-63.45-48.49-95.16-72.74
		C622.23,50.28,621.07,49.47,619.1,48.04z"/>
	<path class="st0" d="M425.92,127.46c-10.28,3.01-14.72-2.66-18.78-11.09c-9.79-20.33-20.42-40.27-30.74-60.35
		c-0.63-1.23-0.89-3.3-2.3-3.34c-1.71-0.05-2.01,2.12-2.68,3.42c-11.17,21.69-22.4,43.35-33.3,65.17c-2.33,4.66-4.99,6.9-10.42,6.31
		c-4.89-0.54-9.89-0.1-14.84-0.12c-4.52-0.02-4.61-0.15-2.48-4.3c12.43-24.25,24.88-48.49,37.32-72.73
		c7.88-15.35,15.74-30.72,23.68-46.04c0.66-1.28,0.88-3.45,2.71-3.37c1.52,0.06,1.77,2.05,2.4,3.28
		c17.23,33.6,34.43,67.21,51.64,100.82c3.08,6,6.23,11.97,9.29,17.98c2.06,4.04,1.88,4.32-2.52,4.36
		C431.92,127.48,428.92,127.46,425.92,127.46z"/>
	<path class="st0" d="M849.77,127.44c-8.92,3.14-13.31-2.81-17.41-11.33c-9.84-20.45-20.52-40.51-30.91-60.7
		c-0.55-1.07-0.7-2.91-2.27-2.79c-1.15,0.09-1.46,1.7-1.98,2.72c-11.16,21.69-22.46,43.32-33.29,65.17
		c-2.6,5.24-5.52,7.76-11.54,7.07c-4.76-0.55-9.63-0.08-14.45-0.12c-4.04-0.03-4.23-0.3-2.4-3.87c10.95-21.36,21.94-42.7,32.9-64.06
		c9.48-18.47,18.93-36.96,28.44-55.41c0.61-1.19,0.87-3.17,2.49-3.13c1.6,0.04,1.82,2.01,2.45,3.22
		c20.1,39.13,40.17,78.27,60.24,117.41c0.53,1.04,1.06,2.08,1.56,3.13c0.85,1.76,0.38,2.7-1.68,2.69
		C858.4,127.43,854.89,127.44,849.77,127.44z"/>
	<path class="st0" d="M169.48,117.27c0,2.98-0.04,5.96,0.01,8.93c0.03,1.96-0.86,2.81-2.82,2.8c-5.98-0.03-11.97-0.03-17.95,0.01
		c-1.97,0.01-2.89-0.95-2.9-2.81c-0.02-5.96-0.02-11.91,0-17.87c0.01-2.15,1.34-2.93,3.31-2.93c5.72,0,11.45,0,17.17-0.01
		c2.25,0,3.31,1,3.23,3.32c-0.1,2.84-0.02,5.7-0.02,8.54C169.49,117.27,169.49,117.27,169.48,117.27z"/>
</g>
</svg>
